<svg width="7356" height="82" viewBox="0 0 7356 82" fill="none" xmlns="http://www.w3.org/2000/svg">
<path d="M2633 14.769C2362.2 44.769 2097 12 1839 12V81.9997H3678V12C3562 12 3464 36.5 3319.5 29.8075C3182.27 23.4516 2971.5 -22.731 2633 14.769Z" fill="#0029FF"/>
<path d="M794 14.769C523.2 44.769 258 12 0 12V81.9997H1839V12C1723 12 1625 36.5 1480.5 29.8075C1343.27 23.4516 1132.5 -22.731 794 14.769Z" fill="#0029FF"/>
<path d="M6311 14.769C6040.2 44.769 5775 12 5517 12V81.9997H7356V12C7240 12 7142 36.5 6997.5 29.8075C6860.27 23.4516 6649.5 -22.731 6311 14.769Z" fill="#0029FF"/>
<path d="M4472 14.769C4201.2 44.769 3936 12 3678 12V81.9997H5517V12C5401 12 5303 36.5 5158.5 29.8075C5021.27 23.4516 4810.5 -22.731 4472 14.769Z" fill="#0029FF"/>
</svg>
